# xmcd CD database file
#
# Track frame offsets:
#	150
#	12888
#	25847
#	42754
#	61659
#	80162
#	92915
#	106252
#	119290
#	133916
#	146646
#	163102
#	176941
#	188283
#	201362
#	212847
#	229336
#	239202
#	251452
#	267935
#
# Disc length: 3758 seconds
#
# Revision: 0
# Processed by: cddbd v1.5.2PL0 Copyright (c) Steve Scherf et al.
# Submitted via: CDex 1.51
#
DISCID=230eac14
DTITLE=Django Reinhardt - Kind Of Reinhardt [CD8] - The Standards
DYEAR=2009
DGENRE=Jazz
TTITLE0=It's Only A Paper Moon (Arlen/Harburg/Rose)
TTITLE1=All The Things You Are (Kern/Hammerstein)
TTITLE2=I Surrender Dear (Barris/Clifford)
TTITLE3=Stormy Weather (Arlen/Koehler)
TTITLE4=St. Louis Blues (Handy)
TTITLE5=Darktown Strutlers Ball (Brooks)
TTITLE6=I'm Cnfessin' (Dougherty/Neiburg/Reynolds)
TTITLE7=It Had To Be You (Gershwin)
TTITLE8=Jeespers Creespers (Warren/Mercer)
TTITLE9=Tea For Two (Caesar/Youmans)
TTITLE10=What A Difference A Day Makes (Grever/Adams)
TTITLE11=Body and Soul (Green/Eyton/Heyman/Sour)
TTITLE12=It Don't Mean A Thing (La Rocca/Da Costa)
TTITLE13=Ain't Misbehavin' (Razaf/Brooks/Waller)
TTITLE14=Stardust (Carmichael)
TTITLE15=I Can't Give You Anithing But Love (McHugh/Fields)
TTITLE16=What Is This Thing Called (Porter)
TTITLE17=Ol' Man River (Kern/Hammerstein)
TTITLE18=How High The Moon (Hamilton/Lewis)
TTITLE19=Embraceable You (Gershwin)
EXTD=YEAR: 2009
EXTT0=
EXTT1=
EXTT2=
EXTT3=
EXTT4=
EXTT5=
EXTT6=
EXTT7=
EXTT8=
EXTT9=
EXTT10=
EXTT11=
EXTT12=
EXTT13=
EXTT14=
EXTT15=
EXTT16=
EXTT17=
EXTT18=
EXTT19=
PLAYORDER=
